<mxfile host="app.diagrams.net" modified="2023-10-03T16:25:20.390Z" agent="Mozilla/5.0 (Windows NT 10.0; Win64; x64) AppleWebKit/537.36 (KHTML, like Gecko) Chrome/117.0.0.0 Safari/537.36" etag="H73Ginc3aA1Z5UUERlIl" version="22.0.2" type="device">
  <diagram name="Page-1" id="uLG8CrszjkpqkmIruPHv">
    <mxGraphModel dx="1502" dy="587" grid="0" gridSize="10" guides="1" tooltips="1" connect="1" arrows="1" fold="1" page="1" pageScale="1" pageWidth="850" pageHeight="1100" math="0" shadow="0">
      <root>
        <mxCell id="0" />
        <mxCell id="1" parent="0" />
        <mxCell id="ZOaTzucrzXKfwUxxtUDr-1" value="" style="rounded=0;whiteSpace=wrap;html=1;rotation=90;fillColor=#d5e8d4;strokeColor=#82b366;" vertex="1" parent="1">
          <mxGeometry x="250" y="236" width="120" height="11" as="geometry" />
        </mxCell>
        <mxCell id="ZOaTzucrzXKfwUxxtUDr-2" value="" style="rounded=0;whiteSpace=wrap;html=1;rotation=90;fillColor=#d5e8d4;strokeColor=#82b366;" vertex="1" parent="1">
          <mxGeometry x="250" y="356" width="120" height="11" as="geometry" />
        </mxCell>
        <mxCell id="ZOaTzucrzXKfwUxxtUDr-3" value="" style="rounded=0;whiteSpace=wrap;html=1;rotation=90;fillColor=#d5e8d4;strokeColor=#82b366;" vertex="1" parent="1">
          <mxGeometry x="250" y="476" width="120" height="11" as="geometry" />
        </mxCell>
        <mxCell id="ZOaTzucrzXKfwUxxtUDr-4" value="" style="rounded=0;whiteSpace=wrap;html=1;rotation=90;fillColor=#ffe6cc;strokeColor=#d79b00;" vertex="1" parent="1">
          <mxGeometry x="250" y="596" width="120" height="11" as="geometry" />
        </mxCell>
        <mxCell id="ZOaTzucrzXKfwUxxtUDr-5" value="&lt;h1&gt;1st&amp;nbsp; Mid Defense&lt;/h1&gt;&lt;p&gt;&lt;/p&gt;&lt;ul&gt;&lt;li&gt;Designing and developing the basic physical system.&lt;/li&gt;&lt;/ul&gt;&lt;p&gt;&lt;/p&gt;" style="text;html=1;strokeColor=none;fillColor=none;spacing=5;spacingTop=-20;whiteSpace=wrap;overflow=hidden;rounded=0;" vertex="1" parent="1">
          <mxGeometry x="330" y="181.5" width="235" height="120" as="geometry" />
        </mxCell>
        <mxCell id="ZOaTzucrzXKfwUxxtUDr-6" value="&lt;h1&gt;1st Final Defense&lt;/h1&gt;&lt;p&gt;&lt;/p&gt;&lt;ul&gt;&lt;li&gt;Adding some degree of automation to the Growth Module (GM) and Nutrient Solution Container Module (NSCM)&lt;/li&gt;&lt;/ul&gt;&lt;p&gt;&lt;/p&gt;" style="text;html=1;strokeColor=none;fillColor=none;spacing=5;spacingTop=-20;whiteSpace=wrap;overflow=hidden;rounded=0;" vertex="1" parent="1">
          <mxGeometry x="330" y="301.5" width="333" height="120" as="geometry" />
        </mxCell>
        <mxCell id="ZOaTzucrzXKfwUxxtUDr-8" value="&lt;h1&gt;2nd Mid Defense&lt;/h1&gt;&lt;p&gt;&lt;/p&gt;&lt;ul&gt;&lt;li&gt;Completely automating the NSCM while finishing 90% of the work on the GM.&lt;/li&gt;&lt;li&gt;Developing a Control Unit with a Raspberry Pi 4 and creating a web-based dashboard to monitor the system&#39;s physcal parameters in near real-time&lt;/li&gt;&lt;/ul&gt;&lt;p&gt;&lt;/p&gt;" style="text;html=1;strokeColor=none;fillColor=none;spacing=5;spacingTop=-20;whiteSpace=wrap;overflow=hidden;rounded=0;" vertex="1" parent="1">
          <mxGeometry x="330" y="414" width="343" height="120" as="geometry" />
        </mxCell>
        <mxCell id="ZOaTzucrzXKfwUxxtUDr-9" value="&lt;h1&gt;2nd Final Defense&lt;/h1&gt;&lt;p&gt;&lt;/p&gt;&lt;ul&gt;&lt;li&gt;Adding CO2 cylinders to the system as a source of CO2.&amp;nbsp;&lt;/li&gt;&lt;li&gt;Growing a batch of lettuce to test the system&amp;nbsp;&lt;/li&gt;&lt;li&gt;Developing an xgboost based control action determination system for the Raspberry Pi.&amp;nbsp;&lt;/li&gt;&lt;li&gt;Creating and controlling multiple GMs simultaneously.&amp;nbsp;&lt;/li&gt;&lt;/ul&gt;&lt;p&gt;&lt;/p&gt;" style="text;html=1;strokeColor=none;fillColor=none;spacing=5;spacingTop=-20;whiteSpace=wrap;overflow=hidden;rounded=0;" vertex="1" parent="1">
          <mxGeometry x="327" y="541.5" width="356" height="126.5" as="geometry" />
        </mxCell>
      </root>
    </mxGraphModel>
  </diagram>
</mxfile>
